<svg width="150" height="150" viewBox="0 0 150 150" fill="none" xmlns="http://www.w3.org/2000/svg">
<path d="M74.789 24.4114C80.3237 33.9195 85.9064 43.3996 91.3812 52.9437C82.532 68.5536 73.8106 84.2393 64.6619 99.6775C61.1518 105.604 57.7375 111.586 54.2673 117.532C43.0141 117.6 31.7609 117.596 20.5078 117.58C20.8512 116.809 21.1906 116.034 21.6059 115.299C39.3243 84.9981 57.1105 54.7367 74.789 24.4114Z" fill="#AE285D"/>
<path d="M74.7908 82.3781C86.0839 82.3741 97.377 82.2942 108.67 82.4819C115.395 94.2063 122.335 105.803 129 117.559C117.707 117.615 106.418 117.571 95.1248 117.563C88.404 105.799 81.3837 94.2143 74.7908 82.3781Z" fill="#AE285D"/>
</svg>
