<svg width="150" height="150" viewBox="0 0 150 150" fill="none" xmlns="http://www.w3.org/2000/svg">
<path d="M42.0208 107.967H108.981V42.0157H42.0208V107.967Z" fill="#ED232A"/>
<path d="M53.7409 96.424H97.2693V53.5508H53.7409V96.424Z" fill="white"/>
<path d="M72.1541 107.967H78.8477V42.0157H72.1541V107.967Z" fill="white"/>
<path d="M42.0208 78.2795H108.981V71.687H42.0208V78.2795Z" fill="white"/>
<path d="M65.4609 84.8807H85.5497V65.0945H65.4609V84.8807Z" fill="#004C8F"/>
<path d="M25.0306 28.0465H123.972V121.978H25.0306V28.0465Z" fill="#ED232A"/>
<path d="M42.3482 44.487H106.666V105.549H42.3482V44.487Z" fill="white"/>
<path d="M69.5558 28.0465H79.4464V121.978H69.5558V28.0465Z" fill="white"/>
<path d="M25.0306 70.3291H123.972V79.7185H25.0306V70.3291Z" fill="white"/>
<path d="M59.6658 60.9274H89.3493V89.1078H59.6658V60.9274Z" fill="#004C8F"/>
</svg>
