<svg width="150" height="150" viewBox="0 0 150 150" fill="none" xmlns="http://www.w3.org/2000/svg">
<path d="M50.3109 41.3225C78.4824 13.9227 112.666 6.81542 126.341 25.484C140.024 44.1606 128 81.8997 99.8287 109.292C71.649 136.884 37.4736 143.984 23.585 125.114C10.1235 106.244 22.1477 68.6983 50.3109 41.3225Z" fill="#F06321"/>
<path d="M126.341 25.484C131.105 32.3822 132.558 41.5235 131.524 51.8628C127.795 65.8602 118.678 80.8867 105.003 93.8631C79.7308 118.015 49.4814 124.101 36.8494 107.668C24.6199 91.226 34.985 58.359 59.6412 34.4243C62.7458 31.5702 65.8504 28.9331 68.9632 26.706C92.371 12.0896 115.573 10.8836 126.341 25.484Z" fill="#AE282E"/>
<path d="M104.592 29.7451V30.3561C104.379 33.8052 102.309 38.0664 98.5803 41.7165C92.9953 46.9906 85.5376 49.0167 82.4166 45.9856C78.9013 42.7375 80.9793 35.6303 86.5725 29.9461C92.3711 24.471 99.8287 22.6459 102.933 25.894C103.968 26.907 104.592 28.1211 104.592 29.7451ZM83.049 122.879C69.7846 132.615 56.1177 137.495 42.8533 135.469C48.4466 135.67 53.0131 129.576 56.7419 121.464C60.4708 113.143 62.5405 105.44 64.4049 98.1242C67.0989 86.5629 67.3042 78.4506 65.8504 76.6256C63.5754 73.7714 58.6064 74.3905 52.7996 77.6386C49.9003 79.2627 46.1715 78.2496 50.5327 72.9755C55.0829 67.7013 72.6839 55.1109 78.9013 53.0849C85.9483 51.2598 93.8166 53.8969 91.1309 61.3981C89.25 66.8732 64.8156 129.375 83.049 122.879Z" fill="white"/>
</svg>
