<svg width="150" height="150" viewBox="0 0 150 150" fill="none" xmlns="http://www.w3.org/2000/svg">
<path d="M132.841 85.8754L141 64.0002H135.122L130.169 78.1443L125.217 64.0002H119.089L127.248 85.8754H132.841Z" fill="black"/>
<path d="M106.083 78.6431L110.643 85.8754H116.985L111.855 78.0374C114.527 77.0398 116.201 74.7597 116.201 71.4463C116.201 66.6723 112.959 64.0002 108.256 64.0002H98.4233V85.8754H104.088V78.6431H106.083ZM104.088 68.8099H107.651C109.681 68.8099 110.608 69.8431 110.608 71.4463C110.608 73.0496 109.681 74.0828 107.651 74.0828H104.088V68.8099Z" fill="black"/>
<path d="M77.4034 64.0002V85.8754H93.0438V80.9232H83.0325V77.1467H92.1888V72.337H83.0325V68.9168H93.0438V64.0002H77.4034Z" fill="black"/>
<path d="M72.1666 80.9232H62.0128L72.0597 68.2043V64.0002H54.7092V68.9168H64.7561L54.6023 81.6357V85.8754H72.1666V80.9232Z" fill="black"/>
<path d="M33.5825 64.0002V85.8754H49.2229V80.9232H39.2116V77.1467H48.3678V72.337H39.2116V68.9168H49.2229V64.0002H33.5825Z" fill="black"/>
<path d="M14.6291 80.923V68.9166H16.9805C20.6145 68.9166 22.6453 71.2323 22.6453 74.9376C22.6453 78.6072 20.6145 80.923 16.9805 80.923H14.6291ZM9 85.8752H17.2655C24.1416 85.8752 28.31 81.5999 28.31 74.9376C28.31 68.2753 24.1416 64 17.2655 64H9V85.8752Z" fill="black"/>
</svg>
