<svg width="150" height="150" viewBox="0 0 150 150" fill="none" xmlns="http://www.w3.org/2000/svg">
<mask id="mask0_12_503" style="mask-type:alpha" maskUnits="userSpaceOnUse" x="9" y="58" width="34" height="34">
<path d="M26 92C35.3888 92 43 84.3888 43 75C43 65.6112 35.3888 58 26 58C16.6112 58 9 65.6112 9 75C9 84.3888 16.6112 92 26 92Z" fill="#5367FF"/>
</mask>
<g mask="url(#mask0_12_503)">
<path d="M26 92C35.3888 92 43 84.3888 43 75C43 65.6112 35.3888 58 26 58C16.6112 58 9 65.6112 9 75C9 84.3888 16.6112 92 26 92Z" fill="#5367FF"/>
<path d="M8.45609 81.6924L18.9103 74.8654L29.0458 78.7365L42.1899 65.8562L46.5361 95.4845L11.683 98.7682L8.45609 81.6924Z" fill="#00FFC4"/>
<path opacity="0.078" d="M9.24882 84.9856L19.7031 78.1586L29.8385 82.0297L42.9827 69.1494L47.3288 98.776L12.4757 102.061L9.24882 84.9856Z" fill="black"/>
<path opacity="0.078" d="M10.1182 88.2324L20.5724 81.4055L30.7078 85.2766L43.852 72.3962L48.1982 102.023L13.3451 105.308L10.1182 88.2324Z" fill="black"/>
<path opacity="0.078" d="M10.9877 91.4751L21.442 84.6481L31.5774 88.5192L44.7216 75.6389L49.0677 105.267L14.2146 108.551L10.9877 91.4751Z" fill="black"/>
</g>
<path d="M62.4865 83.8149C59.8013 83.8149 57.6259 82.983 55.9602 81.319C54.2944 79.6551 53.4615 77.565 53.4615 75.0488V75.0001C53.4615 72.5651 54.311 70.4872 56.0099 68.7664C57.7088 67.0457 59.8511 66.1853 62.4367 66.1853C63.8953 66.1853 65.1384 66.376 66.166 66.7575C67.1937 67.139 68.1798 67.7194 69.1246 68.4986L67.1854 70.7632C66.4561 70.1463 65.7227 69.6877 64.9851 69.3874C64.2475 69.087 63.3566 68.9369 62.3124 68.9369C60.7212 68.9369 59.3829 69.5253 58.2972 70.7023C57.2116 71.8792 56.6687 73.2956 56.6687 74.9514V75.0001C56.6687 76.7696 57.2157 78.2265 58.3096 79.371C59.4036 80.5155 60.829 81.0877 62.5859 81.0877C64.2102 81.0877 65.6108 80.6575 66.7876 79.7971V76.6072H62.3373V74.0018H69.7462V81.1607C67.6412 82.9302 65.2213 83.8149 62.4865 83.8149Z" fill="white"/>
<path d="M73.7312 83.5227V70.6657H76.7395V73.5634C77.6677 71.3719 79.2174 70.3248 81.3887 70.4222V73.5391H81.2146C79.8555 73.5391 78.7699 73.9733 77.9577 74.8418C77.1456 75.7103 76.7395 76.9725 76.7395 78.6283V83.5227H73.7312Z" fill="white"/>
<path fill-rule="evenodd" clip-rule="evenodd" d="M85.1748 81.8791C86.5008 83.1697 88.1583 83.815 90.1472 83.815C92.1528 83.815 93.8268 83.1616 95.1694 81.8548C96.5119 80.548 97.1832 78.9693 97.1832 77.1186V77.0699C97.1832 75.2193 96.5161 73.6447 95.1818 72.346C93.8475 71.0473 92.1859 70.3979 90.197 70.3979C88.208 70.3979 86.5423 71.0513 85.1997 72.3581C83.8571 73.665 83.1859 75.2518 83.1859 77.1186V77.1673C83.1859 79.018 83.8488 80.5885 85.1748 81.8791ZM93.0809 80.0528C92.3516 80.8401 91.3903 81.2338 90.1969 81.2338C89.0532 81.2338 88.1002 80.832 87.3378 80.0284C86.5753 79.2249 86.1941 78.2549 86.1941 77.1186V77.0699C86.1941 75.9173 86.5587 74.9473 87.288 74.16C88.0173 73.3727 88.9703 72.979 90.1472 72.979C91.3074 72.979 92.2687 73.3808 93.0311 74.1844C93.7936 74.9879 94.1748 75.966 94.1748 77.1186V77.1673C94.1748 78.3036 93.8101 79.2654 93.0809 80.0528Z" fill="white"/>
<path d="M103.132 83.6203L98.8809 70.6659H101.964L104.599 79.4807L107.508 70.6172H110.094L113.002 79.4807L115.688 70.6659H118.721L114.42 83.6203H111.71L108.776 74.8298L105.817 83.6203H103.132Z" fill="white"/>
<path d="M124.645 83.6203L120.394 70.6659H123.477L126.112 79.4807L129.021 70.6172H131.606L134.515 79.4807L137.2 70.6659H140.234L135.932 83.6203H133.222L130.289 74.8298L127.33 83.6203H124.645Z" fill="white"/>
</svg>
