<svg width="150" height="150" viewBox="0 0 150 150" fill="none" xmlns="http://www.w3.org/2000/svg">
<g clip-path="url(#clip0_13_257)">
<path d="M116.091 74.8182L128.636 98.3637H141L116.091 51.7273L91.2727 98.2727H103.545L116.091 74.8182Z" fill="black"/>
<path d="M75.2728 87.3637V51.6365H64.4546V98.2728H85.4546L91.2728 87.3637H75.2728Z" fill="black"/>
<path d="M33.9091 50C29 50 24.1818 51.4545 20.0909 54.1818C16 56.9091 12.8182 60.8182 10.9091 65.3636C8.99998 70 8.54544 75 9.45453 79.8182C10.4545 84.7273 12.8182 89.1818 16.2727 92.6364C19.7273 96.0909 24.1818 98.5455 29 99.4545C33.8182 100.455 38.8182 99.9091 43.3636 98C47.9091 96.0909 51.8182 92.9091 54.5454 88.8182C57.2727 84.7273 58.7273 79.9091 58.7273 74.9091C58.7273 68.2727 56.0909 61.9091 51.4545 57.2727C46.8182 52.6364 40.4545 50 33.9091 50ZM33.9091 88.4545C31.2727 88.4545 28.6363 87.6364 26.4545 86.1818C24.2727 84.7273 22.5454 82.6364 21.5454 80.1818C20.5454 77.7273 20.2727 75 20.7273 72.3636C21.2727 69.7273 22.5454 67.3636 24.3636 65.4545C26.2727 63.5455 28.6363 62.2727 31.1818 61.7273C33.8182 61.1818 36.4545 61.4545 38.9091 62.4545C41.3636 63.4545 43.4545 65.1818 44.9091 67.4545C46.3636 69.6364 47.1818 72.2727 47.1818 74.9091C47.1818 78.4545 45.7273 81.9091 43.2727 84.4545C40.8182 87.0909 37.3636 88.4545 33.9091 88.4545Z" fill="black"/>
</g>
<defs>
<clipPath id="clip0_13_257">
<rect width="132" height="50" fill="white" transform="translate(9 50)"/>
</clipPath>
</defs>
</svg>
