<svg width="150" height="150" viewBox="0 0 150 150" fill="none" xmlns="http://www.w3.org/2000/svg">
<g clip-path="url(#clip0_12_549)">
<path d="M44.2307 79.2054C46.5565 69.6317 40.6682 59.9884 31.0786 57.6664C21.4891 55.3444 11.8297 61.223 9.5039 70.7967C7.17806 80.3704 13.0665 90.0137 22.656 92.3357C32.2455 94.6577 41.9049 88.7791 44.2307 79.2054Z" fill="#5F259F"/>
<path d="M34.955 70.3206C34.955 69.6295 34.3938 69.0692 33.7016 69.0692H31.3192L25.8278 62.7439C25.3185 62.1572 24.5125 61.9227 23.7672 62.1438L21.8609 62.7097C21.5694 62.7961 21.4802 63.1651 21.7004 63.3746L27.6792 69.0689H18.5416C18.2784 69.0689 18.0651 69.2819 18.0651 69.5447V70.5744C18.0651 71.2655 18.6264 71.8258 19.3186 71.8258H20.7154V76.6403C20.7154 80.2343 22.6339 82.3799 25.8476 82.3799C26.8233 82.3799 27.6649 82.2661 28.6267 81.8897V85.1004C28.6267 85.9707 29.3334 86.676 30.2049 86.676H31.5919C31.9209 86.676 32.1875 86.4098 32.1875 86.0814V71.8253H34.4785C34.7417 71.8253 34.955 71.6123 34.955 71.3495V70.3206ZM28.6267 78.8914C28.0644 79.1444 27.2467 79.2857 26.6417 79.2857C25.0049 79.2857 24.2752 78.47 24.2752 76.6406V71.8261H28.6267V78.8914Z" fill="white"/>
<path d="M99.4647 85.1912V78.7136C99.4647 77.0826 98.8239 76.3552 97.3872 76.3552C96.7771 76.3552 96.0873 76.4359 95.6438 76.59V86.0831C95.6438 86.4115 95.3772 86.6777 95.0482 86.6777H92.7622C92.4333 86.6777 92.1666 86.4115 92.1666 86.0831V74.9644C92.1666 74.5772 92.427 74.2427 92.7406 74.1313C94.2156 73.6065 95.7705 73.2868 97.3872 73.2868C100.984 73.2868 102.965 75.2142 102.965 78.7136V86.0831C102.965 86.4115 102.698 86.6777 102.369 86.6777H100.954C100.131 86.6777 99.4647 86.0122 99.4647 85.1912ZM108.482 81.2836H108.402L108.402 81.3637L108.405 82.2008C108.405 83.4132 109.179 84.1087 110.529 84.1087C111.529 84.1087 112.479 83.8557 113.428 83.3336C113.483 83.3035 113.585 83.2614 113.744 83.2614C113.93 83.2614 114.083 83.3697 114.172 83.473C114.262 83.5763 114.522 83.877 114.522 83.877C114.771 84.1651 114.922 84.5328 114.909 84.9131C114.892 85.4273 114.614 85.8722 114.181 86.102C113.06 86.6974 111.826 86.9871 110.41 86.9871C108.833 86.9871 107.484 86.5675 106.509 85.7734C105.459 84.9192 104.904 83.6596 104.904 82.1304V78.2623C104.904 75.1462 106.936 73.286 110.339 73.286C113.658 73.286 115.561 75.0998 115.561 78.2623L115.559 80.6895C115.559 81.0176 115.292 81.2836 114.963 81.2836H108.482ZM108.402 79.0942H108.482H112.143H112.223L112.223 79.0143L112.226 78.096C112.226 76.8533 111.53 76.1407 110.316 76.1407C109.084 76.1407 108.405 76.8352 108.405 78.096L108.402 79.014L108.402 79.0942ZM133.921 81.2836H133.841L133.841 81.3637L133.844 82.2008C133.844 83.4132 134.618 84.1087 135.968 84.1087C136.968 84.1087 137.917 83.8557 138.867 83.3336C138.922 83.3035 139.024 83.2614 139.183 83.2614C139.369 83.2614 139.522 83.3697 139.611 83.473C139.701 83.5763 139.961 83.877 139.961 83.877C140.21 84.1651 140.361 84.5328 140.348 84.9131C140.331 85.4273 140.053 85.8722 139.62 86.102C138.499 86.6974 137.265 86.9871 135.849 86.9871C134.273 86.9871 132.923 86.5675 131.948 85.7734C130.898 84.9192 130.343 83.6596 130.343 82.1304V78.2623C130.343 75.1462 132.375 73.286 135.778 73.286C139.097 73.286 141 75.0998 141 78.2623L140.998 80.6895C140.998 81.0176 140.731 81.2836 140.402 81.2836H133.921ZM133.841 79.0942H133.921H137.582H137.662L137.662 79.0143L137.665 78.096C137.665 76.8533 136.968 76.1407 135.755 76.1407C134.523 76.1407 133.844 76.8352 133.844 78.096L133.841 79.014L133.841 79.0942ZM75.0486 86.6777H76.4645C76.7934 86.6777 77.06 86.4115 77.06 86.0831V78.6891C77.06 75.3062 75.2506 73.2865 72.2199 73.2865C71.3059 73.2865 70.3204 73.4439 69.7377 73.7011V70.05C69.7377 69.229 69.0711 68.5635 68.2488 68.5635H66.8575C66.5286 68.5635 66.2619 68.8297 66.2619 69.1581V86.0828C66.2619 86.4112 66.5286 86.6774 66.8575 86.6774H69.1422C69.4711 86.6774 69.7377 86.4112 69.7377 86.0828V76.6659C70.2129 76.4498 70.9102 76.3307 71.4593 76.3307C72.9121 76.3307 73.5599 77.0581 73.5599 78.6891V85.1909C73.5597 86.0122 74.2263 86.6777 75.0486 86.6777ZM90.1317 78.3093V82.0345C90.1317 85.0889 88.0039 86.9863 84.5785 86.9863C81.1381 86.9863 79.0007 85.0889 79.0007 82.0345V78.3093C79.0007 75.2111 81.1381 73.2865 84.5785 73.2865C88.0039 73.2868 90.1317 75.2113 90.1317 78.3093ZM86.6084 78.3093C86.6084 77.0674 85.8687 76.3552 84.5788 76.3552C83.2889 76.3552 82.5491 77.0674 82.5491 78.3093V82.0345C82.5491 83.2648 83.2699 83.9424 84.5788 83.9424C85.8877 83.9424 86.6084 83.2648 86.6084 82.0345V78.3093ZM64.3265 76.5914C64.3221 79.8221 61.9054 81.9923 58.7363 81.9923C57.9354 81.9923 57.25 81.88 56.575 81.6149V86.0828C56.575 86.4112 56.3083 86.6774 55.9794 86.6774H53.6396C53.3106 86.6774 53.044 86.4112 53.044 86.0828V70.22C53.044 69.7793 53.3526 69.4762 53.6411 69.3779C55.1148 68.8769 56.6581 68.5711 58.2276 68.5711C61.8114 68.5711 64.3263 70.7511 64.3263 74.1247V76.5914H64.3265ZM60.7446 74.048C60.7446 72.4766 59.6852 71.6772 58.1247 71.6772C57.263 71.6772 56.575 71.9526 56.575 71.9526V78.5233C57.1302 78.8274 57.5188 78.9236 58.1495 78.9236C59.6896 78.9236 60.7446 78.0631 60.7446 76.5626V74.048ZM128.892 76.5914C128.887 79.8221 126.471 81.9923 123.302 81.9923C122.501 81.9923 121.815 81.88 121.14 81.6149V86.0828C121.14 86.4112 120.874 86.6774 120.545 86.6774H118.205C117.876 86.6774 117.609 86.4112 117.609 86.0828V70.22C117.609 69.7793 117.918 69.4762 118.207 69.3779C119.68 68.8769 121.224 68.5711 122.793 68.5711C126.377 68.5711 128.892 70.7511 128.892 74.1247V76.5914H128.892ZM125.31 74.048C125.31 72.4766 124.251 71.6772 122.69 71.6772C121.828 71.6772 121.14 71.9526 121.14 71.9526V78.5233C121.696 78.8274 122.084 78.9236 122.715 78.9236C124.255 78.9236 125.31 78.0631 125.31 76.5626V74.048Z" fill="#5F259F"/>
</g>
<defs>
<clipPath id="clip0_12_549">
<rect width="132" height="35.6757" fill="white" transform="translate(9 57.1621)"/>
</clipPath>
</defs>
</svg>
