<svg width="150" height="150" viewBox="0 0 150 150" fill="none" xmlns="http://www.w3.org/2000/svg">
<g clip-path="url(#clip0_12_593)">
<mask id="mask0_12_593" style="mask-type:luminance" maskUnits="userSpaceOnUse" x="9" y="54" width="132" height="41">
<path d="M140.813 54.4521H9.46002V94.6605H140.813V54.4521Z" fill="white"/>
</mask>
<g mask="url(#mask0_12_593)">
<path d="M41.7575 75.4583C41.7575 78.9907 41.3526 81.811 40.5425 83.919C39.7324 86.0271 38.6018 87.5287 37.1506 88.4238C35.6981 89.3166 33.9397 89.7636 31.8753 89.7648C29.2764 89.7648 27.0526 89.1646 25.2039 87.9642C23.4772 86.8439 22.217 85.1034 21.4233 82.7427C21.3771 82.6034 21.2798 82.4855 21.15 82.4118C21.0202 82.3381 20.8671 82.3136 20.72 82.3431L20.6251 82.3637C20.4745 82.3944 20.3415 82.4796 20.2527 82.6021C20.164 82.7246 20.1262 82.8753 20.1468 83.0239L21.2123 90.8211C21.2141 90.8473 21.2141 90.8737 21.2123 90.9V93.2509C21.2123 94.1083 20.7446 94.6605 19.7687 94.6605H10.9046C10.713 94.6669 10.5222 94.6349 10.3439 94.5663C10.1657 94.4977 10.0038 94.3941 9.86835 94.2619C9.73293 94.1297 9.62686 93.9717 9.55677 93.7978C9.48667 93.6238 9.45405 93.4377 9.46092 93.2509V62.9849C9.45759 62.7991 9.49265 62.6146 9.56402 62.4423C9.63539 62.27 9.7416 62.1135 9.87633 61.9821C10.0111 61.8508 10.1715 61.7472 10.3482 61.6776C10.5248 61.608 10.7141 61.5738 10.9046 61.5771H19.4662C20.2786 61.5771 20.9346 62.0915 20.7991 63.0946L19.9199 70.1338C19.901 70.2858 19.9429 70.4391 20.0369 70.5617C20.1309 70.6844 20.2698 70.767 20.4246 70.7924L20.4914 70.8043C20.6463 70.831 20.8058 70.7985 20.9368 70.7136C21.0677 70.6286 21.1601 70.4978 21.1948 70.3482C21.7293 68.0469 22.4216 66.2224 23.2715 64.8746C24.1893 63.4227 25.3165 62.3939 26.6529 61.7879C27.9892 61.182 29.6304 60.8803 31.5764 60.8826C38.3791 60.8837 41.7728 65.7423 41.7575 75.4583ZM28.9212 80.5546C29.5074 79.6309 29.8004 78.1631 29.8004 76.151C29.8004 74.1996 29.5179 72.8066 28.9528 71.9721C28.3878 71.1376 27.4588 70.7203 26.1658 70.7203C25.3442 70.719 24.5371 70.9309 23.8271 71.3342C23.0545 71.7856 22.4271 72.4391 22.0159 73.2204C21.5471 74.0619 21.2798 75.1016 21.2141 76.3397V79.5978C21.2146 79.6958 21.2397 79.7922 21.2872 79.8786C21.3347 79.965 21.4032 80.0387 21.4867 80.0934C22.2853 80.641 23.1342 81.1158 24.0222 81.5115C24.7372 81.8033 25.5051 81.9514 26.2801 81.947C27.4605 81.9425 28.3409 81.4783 28.9212 80.5546Z" fill="#FF4052"/>
<path d="M55.3991 55.7416V87.6624C55.4012 87.848 55.3653 88.032 55.2935 88.2038C55.2218 88.3757 55.1155 88.5318 54.9811 88.6631C54.8466 88.7944 54.6867 88.8981 54.5105 88.9683C54.3344 89.0386 54.1457 89.0738 53.9554 89.0719H45.2003C45.01 89.0738 44.8212 89.0386 44.645 88.9684C44.4687 88.8982 44.3087 88.7945 44.1741 88.6632C44.0395 88.532 43.9331 88.3758 43.8611 88.204C43.7891 88.0321 43.753 87.848 43.7549 87.6624V57.4615C43.7428 57.1015 43.8641 56.7492 44.0966 56.4693C44.3292 56.1893 44.6573 56.0004 45.0209 55.9371L53.8974 54.4709C54.7696 54.3338 55.3991 54.9562 55.3991 55.7416Z" fill="#FF4052"/>
<path d="M64.8928 88.2213C62.601 87.1626 60.8895 85.6394 59.7583 83.6514C58.627 81.6634 58.062 79.2678 58.0632 76.4647V62.9847C58.0581 62.7985 58.092 62.6132 58.1627 62.4401C58.2335 62.2671 58.3396 62.11 58.4747 61.9782C58.6098 61.8465 58.7709 61.7429 58.9484 61.674C59.1259 61.6049 59.3159 61.5719 59.5068 61.5769H68.3762C68.5666 61.5746 68.7554 61.6094 68.9317 61.6793C69.108 61.7492 69.2682 61.8528 69.4029 61.984C69.5376 62.1152 69.644 62.2713 69.7159 62.4431C69.7878 62.615 69.8237 62.7991 69.8217 62.9847V76.2178C69.8217 77.5301 70.127 78.4321 70.7378 78.9237C71.3485 79.4153 72.25 79.661 73.4422 79.661C74.6344 79.661 75.5402 79.4038 76.1588 78.8894C76.7781 78.3749 77.0874 77.4844 77.0874 76.2178V62.9847C77.0822 62.7985 77.1165 62.6132 77.187 62.4401C77.2575 62.2671 77.3637 62.11 77.4989 61.9782C77.6341 61.8465 77.7952 61.7429 77.9725 61.674C78.1498 61.6049 78.3401 61.5719 78.531 61.5769H87.4021C88.2252 61.5769 88.8457 62.0913 88.8457 62.8235V76.4647C88.8457 79.2667 88.2808 81.6622 87.1504 83.6514C86.0207 85.6405 84.3092 87.1638 82.016 88.2213C79.7235 89.2787 76.8654 89.808 73.4422 89.8092C70.0191 89.8103 67.1694 89.281 64.8928 88.2213Z" fill="#FF4052"/>
<path d="M138.395 64.2813C140.007 66.5482 140.813 70.155 140.813 75.1016V87.6625C140.818 87.8488 140.785 88.0343 140.714 88.2076C140.643 88.3808 140.537 88.5382 140.402 88.6701C140.267 88.802 140.106 88.9057 139.928 88.9748C139.751 89.0439 139.56 89.0769 139.369 89.072H130.475C129.678 89.072 129.031 88.5678 129.031 87.6625V75.7498C129.031 73.9767 128.764 72.71 128.23 71.9498C127.695 71.1896 126.9 70.8095 125.845 70.8095C124.547 70.8095 123.592 71.2376 122.981 72.0939C122.37 72.9501 122.049 74.3025 122.017 76.151V87.6625C122.022 87.8488 121.989 88.0343 121.918 88.2076C121.848 88.3808 121.742 88.5382 121.606 88.6701C121.471 88.802 121.31 88.9057 121.132 88.9748C120.955 89.0439 120.765 89.0769 120.574 89.072H111.725C111.534 89.0769 111.344 89.0439 111.166 88.9748C110.989 88.9057 110.828 88.802 110.692 88.6701C110.557 88.5382 110.451 88.3808 110.381 88.2076C110.31 88.0343 110.276 87.8488 110.282 87.6625V75.7498C110.282 73.9904 110.022 72.7272 109.502 71.9601C108.984 71.193 108.188 70.8095 107.118 70.8095C106.58 70.797 106.047 70.9112 105.564 71.1426C105.082 71.3739 104.664 71.7156 104.345 72.1384C103.642 73.0267 103.282 74.3414 103.267 76.0825V87.6607C103.267 88.4855 102.71 89.0703 101.824 89.0703H92.9526C92.7611 89.0753 92.5709 89.0422 92.3936 88.9731C92.2163 88.904 92.0545 88.8003 91.9199 88.6684C91.7847 88.5365 91.6786 88.3791 91.6081 88.2058C91.5369 88.0326 91.5032 87.8471 91.5091 87.6607V62.9849C91.5006 62.7979 91.533 62.6115 91.6022 62.4371C91.6721 62.2628 91.7782 62.1045 91.9141 61.9722C92.0494 61.8398 92.2118 61.7364 92.391 61.6684C92.5696 61.6004 92.7605 61.5693 92.9526 61.5771H101.523C102.388 61.5771 102.995 62.0126 102.9 62.7963L102.128 69.5148C102.112 69.6571 102.149 69.8002 102.232 69.918C102.316 70.0358 102.439 70.1203 102.582 70.1562C102.662 70.1766 102.747 70.1806 102.829 70.168C102.911 70.1554 102.99 70.1264 103.06 70.0829C103.131 70.0392 103.191 69.982 103.238 69.9147C103.285 69.8474 103.317 69.7714 103.332 69.6915C103.751 67.5754 104.309 65.8955 105.005 64.6517C105.768 63.2867 106.745 62.3178 107.938 61.7451C109.13 61.1724 110.643 60.8866 112.476 60.8877C114.704 60.8877 116.533 61.6405 117.966 63.1461C119.313 64.5648 120.12 66.746 120.387 69.6898C120.402 69.8377 120.473 69.9749 120.586 70.0745C120.699 70.1741 120.847 70.2289 120.999 70.2282H121.118C121.259 70.2286 121.395 70.1815 121.505 70.0948C121.613 70.0083 121.689 69.8875 121.716 69.7532C122.167 67.5811 122.769 65.8663 123.524 64.6088C124.334 63.261 125.366 62.3036 126.619 61.7366C127.872 61.1695 129.469 60.8838 131.411 60.8792C134.455 60.8826 136.783 62.0166 138.395 64.2813Z" fill="#FF4052"/>
</g>
</g>
<defs>
<clipPath id="clip0_12_593">
<rect width="132" height="41" fill="white" transform="translate(9 54)"/>
</clipPath>
</defs>
</svg>
