<svg width="150" height="150" viewBox="0 0 150 150" fill="none" xmlns="http://www.w3.org/2000/svg">
<mask id="mask0_13_234" style="mask-type:luminance" maskUnits="userSpaceOnUse" x="9" y="54" width="132" height="42">
<path d="M141 54H9V95.2902H141V54Z" fill="white"/>
</mask>
<g mask="url(#mask0_13_234)">
<path d="M32.496 58.0286C30.5696 56.109 28.1178 54.8027 25.45 54.2744C22.7822 53.7461 20.0177 54.0192 17.5049 55.0595C14.9921 56.0999 12.8436 57.8606 11.3301 60.1203C9.81654 62.38 9.00578 65.037 9 67.7564H22.7739V81.5305C25.4941 81.5259 28.1518 80.7159 30.4124 79.2028C32.6728 77.6897 34.4345 75.5411 35.4755 73.0282C36.5168 70.515 36.7902 67.7502 36.2619 65.0817C35.7339 62.4136 34.4273 59.9612 32.5074 58.0344L32.496 58.0286Z" fill="#890CBD"/>
<path d="M13.0318 91.2583C14.3092 92.5358 15.8265 93.5484 17.4963 94.2378C19.1662 94.9272 20.9558 95.2801 22.7624 95.2758V81.5305H9.00001C8.9984 83.3377 9.35376 85.1272 10.0456 86.7968C10.7375 88.4661 11.7523 89.9824 13.0318 91.2583Z" fill="#890CBD"/>
<path d="M49.8972 90.7993C48.29 90.0896 47.1088 89.2391 46.3531 88.2481C45.5497 87.3042 45.171 86.5008 45.171 85.7918C45.1602 85.6483 45.1847 85.5046 45.2429 85.3729C45.301 85.2412 45.3906 85.1259 45.5039 85.0373C45.5957 84.9432 45.7062 84.8691 45.8281 84.8197C45.9503 84.7704 46.0809 84.7469 46.2126 84.7501H50.0864C50.2177 84.76 50.3451 84.7992 50.4595 84.8648C50.5738 84.9302 50.6719 85.0207 50.7464 85.1292C50.8872 85.2696 51.2659 85.5539 51.8341 86.0273C52.3823 86.5145 53.025 86.8837 53.7222 87.1118C54.4593 87.4022 55.2458 87.5463 56.0378 87.5365C57.3121 87.5365 58.305 87.3013 59.1084 86.7818C59.4793 86.5798 59.7864 86.2783 59.9952 85.9114C60.204 85.5444 60.3062 85.1262 60.2905 84.7044C60.2997 84.1398 60.1154 83.5889 59.7684 83.1433C59.2032 82.6538 58.5442 82.2849 57.8316 82.0585C56.8873 81.7259 55.4699 81.3956 53.6275 80.9712C50.9359 80.3971 48.999 79.5535 47.7218 78.374C46.4449 77.1948 45.7849 75.6797 45.7849 73.7425C45.7931 72.4572 46.1937 71.2045 46.9327 70.1527C47.8009 68.9572 48.9702 68.0126 50.3219 67.4153C51.7854 66.7063 53.5817 66.3763 55.6591 66.3763C57.5496 66.3326 59.4293 66.6701 61.1858 67.3693C62.7469 68.078 63.9264 68.8817 64.7299 69.8257C65.5333 70.7696 65.912 71.6191 65.912 72.3278C65.9153 72.4594 65.8914 72.5901 65.8421 72.712C65.7927 72.8339 65.7189 72.9443 65.6251 73.0368C65.5297 73.143 65.4127 73.2273 65.2824 73.2848C65.1517 73.3423 65.0102 73.371 64.8677 73.3697H61.3296C61.1757 73.3714 61.0234 73.3384 60.8842 73.2727C60.745 73.207 60.6225 73.1106 60.5258 72.9907C60.1602 72.7149 59.8129 72.4147 59.4871 72.0925C58.4259 71.1764 57.0611 70.6882 55.6591 70.7238C54.4799 70.7238 53.5817 70.9591 52.9675 71.4786C52.6702 71.7158 52.4303 72.0177 52.267 72.3611C52.1033 72.7048 52.02 73.0809 52.0236 73.4615C51.9971 73.9761 52.165 74.4819 52.4941 74.8789C52.7809 75.2579 53.3922 75.5879 54.2904 75.9179C55.6284 76.3799 57.003 76.7282 58.3997 76.9595C64.0699 78.044 66.902 80.5493 66.902 84.3744C66.902 86.5955 65.9581 88.4376 64.0326 89.8093C62.1072 91.1809 59.3551 91.887 55.9087 91.887C53.4782 91.887 51.5011 91.508 49.8972 90.7993Z" fill="#890CBD"/>
<path d="M71.0371 91.0836C70.9263 90.982 70.8391 90.8575 70.7816 90.7186C70.7241 90.5798 70.6976 90.4301 70.7041 90.2801V59.0017C70.6973 58.8429 70.7231 58.6844 70.7803 58.5364C70.8378 58.3881 70.925 58.2535 71.0371 58.1408C71.2599 57.9503 71.5448 57.8483 71.8379 57.8539H75.8064C75.9606 57.8313 76.1178 57.8447 76.2658 57.8937C76.4135 57.9428 76.5478 58.0257 76.6582 58.1358C76.7683 58.246 76.851 58.3802 76.9 58.5283C76.949 58.6759 76.9627 58.8334 76.9398 58.9873V90.2658C76.946 90.5595 76.8441 90.8457 76.653 91.0692C76.5399 91.1806 76.4053 91.2675 76.257 91.3244C76.109 91.3812 75.9505 91.4067 75.792 91.3992H71.8435C71.6941 91.408 71.5448 91.3845 71.4056 91.3299C71.2664 91.2754 71.1407 91.1914 71.0371 91.0836Z" fill="#890CBD"/>
<path d="M81.5999 91.0834C81.4901 90.9811 81.4035 90.8566 81.3467 90.7178C81.2898 90.5789 81.2634 90.4296 81.2699 90.2796V68.7868C81.2624 68.6283 81.2879 68.4699 81.3447 68.3215C81.4016 68.1735 81.4885 68.0386 81.5999 67.9259C81.8231 67.7344 82.1093 67.6321 82.4033 67.639H86.4208C86.5721 67.6367 86.7224 67.6648 86.8629 67.7217C87.0031 67.7785 87.1305 67.8628 87.2377 67.97C87.3445 68.0768 87.4291 68.2046 87.486 68.3447C87.5428 68.4849 87.5709 68.6352 87.5686 68.7868V90.2796C87.5693 90.4299 87.5402 90.5789 87.4827 90.7178C87.4249 90.8566 87.3403 90.9824 87.2334 91.0879C87.1263 91.1938 86.9995 91.2768 86.86 91.3327C86.7205 91.3885 86.5711 91.416 86.4208 91.4134H82.4033C82.2537 91.4196 82.104 91.3931 81.9655 91.3363C81.8267 91.2794 81.7022 91.1928 81.5999 91.0834Z" fill="#890CBD"/>
<path d="M94.7599 89.0058C92.6822 87.0689 91.6033 84.4145 91.4543 81.0227L91.4083 79.1316L91.4543 77.2404C91.5948 73.8401 92.6822 71.1943 94.7599 69.2574C96.7915 67.3205 99.5808 66.3877 103.027 66.3877C105.532 66.3877 107.618 66.8124 109.36 67.7106C111.059 68.6088 112.336 69.6475 113.185 70.9218C113.989 72.1986 114.462 73.4268 114.508 74.6093C114.534 74.756 114.521 74.9069 114.471 75.0474C114.42 75.1876 114.334 75.3127 114.221 75.4098C114.109 75.5228 113.975 75.6107 113.826 75.6679C113.678 75.7254 113.519 75.7509 113.36 75.7427H109.171C108.898 75.7597 108.628 75.6751 108.413 75.5045C108.203 75.2902 108.043 75.0327 107.943 74.7498C107.469 73.5676 106.855 72.6721 106.1 72.15C105.208 71.5942 104.173 71.3119 103.122 71.3377C101.518 71.3377 100.29 71.8572 99.3913 72.8472C98.4931 73.8372 97.974 75.3983 97.9249 77.4786L97.8792 79.2263L97.9249 80.7845C98.1145 84.8935 99.8621 86.9255 103.122 86.9255C104.173 86.9673 105.213 86.6869 106.1 86.1217C106.855 85.5996 107.469 84.7501 107.943 83.5219C108.036 83.2363 108.198 82.9772 108.413 82.7675C108.628 82.5969 108.898 82.5119 109.171 82.5293H113.375C113.534 82.5211 113.692 82.5463 113.841 82.6038C113.989 82.6609 114.124 82.7492 114.236 82.8619C114.349 82.9592 114.435 83.0841 114.485 83.2246C114.535 83.3647 114.548 83.5157 114.523 83.6627C114.477 84.7501 114.003 85.9325 113.2 87.2064C112.396 88.4807 111.122 89.6171 109.42 90.5153C107.719 91.4135 105.592 91.884 103.042 91.884C99.5808 91.8869 96.7915 90.9426 94.7599 89.0058Z" fill="#890CBD"/>
<path d="M120.97 88.8625C118.89 86.8309 117.814 83.9984 117.662 80.2537L117.616 79.0742C117.616 75.1518 118.655 72.0354 120.732 69.7656C122.764 67.4984 125.648 66.365 129.284 66.365C133.014 66.365 135.944 67.4984 137.975 69.7656C140.007 72.0325 141 75.0685 141 78.8478V79.8404C141.006 79.9904 140.98 80.1397 140.923 80.2786C140.866 80.4171 140.78 80.5419 140.67 80.6442C140.557 80.7556 140.422 80.8425 140.274 80.8994C140.126 80.9562 139.967 80.9814 139.809 80.9742H124.136V81.3529C124.133 82.9225 124.648 84.449 125.599 85.6974C126.497 86.8796 127.725 87.4448 129.284 87.4448C130.138 87.4638 130.984 87.2746 131.749 86.8943C132.514 86.5139 133.176 85.9536 133.677 85.2613C133.872 85.0169 134.094 84.7953 134.34 84.6012C134.601 84.53 134.872 84.498 135.143 84.5065H139.298C139.568 84.5121 139.831 84.5937 140.056 84.7418C140.153 84.8215 140.23 84.9234 140.279 85.0387C140.329 85.1538 140.351 85.2792 140.343 85.4047C140.343 86.1594 139.915 87.0576 139.02 88.0502C138.122 89.0892 136.799 89.9845 135.146 90.7422C133.313 91.5329 131.331 91.9194 129.335 91.8756C125.791 91.8871 123.002 90.8941 120.97 88.8625ZM134.48 76.8649C134.48 75.0224 134.007 73.5103 133.112 72.3769C132.637 71.8329 132.047 71.4022 131.385 71.1163C130.723 70.8301 130.004 70.6962 129.284 70.7239C127.676 70.7239 126.414 71.298 125.504 72.3769C124.606 73.5103 124.136 75.0224 124.136 76.8649V76.9596H134.466L134.48 76.8649Z" fill="#890CBD"/>
<path d="M83.0346 62.5914C83.6525 63.2109 84.3863 63.7023 85.1943 64.0372C86.0027 64.3721 86.8689 64.5439 87.7438 64.5426V57.874H81.0749C81.0736 58.7506 81.2464 59.6191 81.5826 60.4287C81.9192 61.2384 82.4125 61.9735 83.0346 62.5914Z" fill="#890CBD"/>
</g>
</svg>
